<svg width="150" height="150" viewBox="0 0 150 150" fill="none" xmlns="http://www.w3.org/2000/svg">
<g clip-path="url(#clip0_2862_4937)">
<path d="M50.9242 33.0801C39.5777 33.0801 30.3779 42.2798 30.3779 53.6264C30.3779 58.162 31.852 62.3498 34.339 65.7515C37.7407 68.2386 41.9286 69.7126 46.4642 69.7126C57.8108 69.7126 67.0105 60.5129 67.0105 49.1664C67.0105 44.6307 65.5364 40.4429 63.0494 37.0412C59.6477 34.5541 55.4598 33.0801 50.9242 33.0801Z" fill="#BABABA" fill-opacity="0"/>
<path d="M108.738 33.0801C97.3916 33.0801 88.1919 42.2798 88.1919 53.6264C88.1919 58.162 89.666 62.3498 92.153 65.7515C95.5547 68.2386 99.7426 69.7126 104.278 69.7126C115.625 69.7126 124.824 60.5129 124.824 49.1664C124.824 44.6307 123.35 40.4429 120.863 37.0412C117.462 34.5541 113.274 33.0801 108.738 33.0801Z" fill="#BABABA" fill-opacity="0"/>
<path d="M104.278 69.7127C115.626 69.7127 124.825 60.5138 124.825 49.1664C124.825 37.819 115.626 28.6201 104.278 28.6201C92.9308 28.6201 83.7319 37.819 83.7319 49.1664C83.7319 60.5138 92.9308 69.7127 104.278 69.7127Z" stroke="white" stroke-width="2" stroke-linecap="round" stroke-linejoin="round"/>
<path d="M101.308 69.493L54.3036 111.493C50.8415 114.584 45.5726 114.433 42.2918 111.152C39.0111 107.872 38.8599 102.603 41.9517 99.1407L83.9514 52.1367" stroke="white" stroke-width="2" stroke-linecap="round" stroke-linejoin="round"/>
<path d="M85.6367 40.5186C89.5373 45.3036 93.8764 50.1114 98.601 54.8359C103.326 59.5605 108.141 63.8996 112.918 67.8002" stroke="white" stroke-width="2" stroke-linecap="round" stroke-linejoin="round"/>
<path d="M43.7881 97.0859C45.7535 99.2403 47.8021 101.38 49.9338 103.511C52.0656 105.643 54.2049 107.684 56.3593 109.657" stroke="white" stroke-width="2" stroke-linecap="round" stroke-linejoin="round"/>
<path d="M46.4721 69.7127C57.8195 69.7127 67.0184 60.5138 67.0184 49.1664C67.0184 37.819 57.8195 28.6201 46.4721 28.6201C35.1247 28.6201 25.9258 37.819 25.9258 49.1664C25.9258 60.5138 35.1247 69.7127 46.4721 69.7127Z" stroke="white" stroke-width="2" stroke-linecap="round" stroke-linejoin="round"/>
<path d="M60.003 78.9358L49.4351 69.4941" stroke="white" stroke-width="2" stroke-linecap="round" stroke-linejoin="round"/>
<path d="M90.7392 78.9355L108.791 99.1417C111.883 102.604 111.732 107.873 108.451 111.153C105.17 114.434 99.9012 114.585 96.439 111.494L75.3711 92.6709" stroke="white" stroke-width="2" stroke-linecap="round" stroke-linejoin="round"/>
<path d="M66.7988 52.1299L75.3711 61.7302" stroke="white" stroke-width="2" stroke-linecap="round" stroke-linejoin="round"/>
<path d="M37.8242 67.8002C42.6093 63.8996 47.417 59.5605 52.1416 54.8359C56.8662 50.1114 61.2053 45.2961 65.1059 40.5186" stroke="white" stroke-width="2" stroke-linecap="round" stroke-linejoin="round"/>
<path d="M94.3906 109.649C96.545 107.684 98.6843 105.635 100.816 103.504C102.948 101.372 104.989 99.2325 106.962 97.0781" stroke="white" stroke-width="2" stroke-linecap="round" stroke-linejoin="round"/>
<path d="M108.451 111.153L110.749 113.308C113.856 116.218 114.022 121.094 111.112 124.208C108.201 127.315 103.326 127.481 100.211 124.571L97.2102 121.759C94.1487 118.894 89.3636 119 86.4306 121.993L83.5656 124.919C79.0678 129.515 71.6672 129.515 67.1694 124.919L64.3044 121.993C61.3713 119 56.5863 118.894 53.5247 121.759L50.5237 124.571C47.4168 127.481 42.5335 127.323 39.6231 124.208C36.7128 121.101 36.8715 116.218 39.986 113.308L42.284 111.153" stroke="white" stroke-width="2" stroke-linecap="round" stroke-linejoin="round"/>
</g>
<defs>
<clipPath id="clip0_2862_4937">
<rect width="150" height="150" fill="white"/>
</clipPath>
</defs>
</svg>
