<svg width="138" height="19" viewBox="0 0 138 19" fill="none" xmlns="http://www.w3.org/2000/svg">
<path d="M29.0059 0C31.4935 0 33.584 0.739108 35.2383 2.2041L35.4121 2.35449L33.5957 4.97168L33.3721 4.7832C32.7378 4.2449 32.103 3.85656 31.4687 3.65625C30.8345 3.44352 30.076 3.34377 29.2305 3.34375C27.6012 3.34375 26.2203 3.86943 25.1133 4.93359C24.0187 5.99791 23.459 7.40097 23.459 9.12891C23.4591 10.8567 24.0065 12.2587 25.0762 13.2979C26.1583 14.3371 27.4643 14.8633 28.9941 14.8633C30.4741 14.8632 31.7426 14.55 32.75 13.9365V9.15332L32.7256 9.14062H36.0957V15.3145L36.0342 15.3896C34.4048 17.2051 32.0407 18.1309 29.0059 18.1309C26.4563 18.1308 24.2923 17.2673 22.5635 15.5771C20.8346 13.8868 19.9512 11.708 19.9512 9.11621C19.9512 6.5243 20.8468 4.33243 22.6006 2.60449C24.3667 0.876804 26.5185 0.000105333 29.0059 0Z" fill="white"/>
<path d="M54.5918 10.2051C54.5918 12.7219 53.8953 14.6879 52.5146 16.0527C51.134 17.43 49.3431 18.1191 47.1914 18.1191C45.0396 18.1191 43.2478 17.4303 41.8672 16.0654C40.4866 14.7006 39.7783 12.7471 39.7783 10.2305V0.438477H43.1484V10.1182C43.1485 11.5953 43.5096 12.7844 44.2432 13.6357C44.977 14.4872 45.9351 14.9004 47.1914 14.9004C48.4474 14.9004 49.4173 14.4877 50.1387 13.624C50.8601 12.7601 51.2334 11.5828 51.2334 10.0928V0.414062H54.5918V10.2051Z" fill="white"/>
<path fill-rule="evenodd" clip-rule="evenodd" d="M11.0947 0.588867L18.707 17.9561H15.1006L13.4082 14.0869H5.29883L3.60742 17.9561H0L7.66211 0.425781H11.0205L11.0947 0.588867ZM6.69141 10.9189H12.0283L9.35351 4.82129L6.69141 10.9189Z" fill="white"/>
<path d="M131.101 0.213867C132.183 0.213867 133.252 0.38886 134.31 0.751953C135.367 1.11503 136.287 1.61541 137.059 2.25391L135.541 4.4209C135.043 3.97013 134.359 3.59365 133.514 3.30566C132.655 3.01771 131.822 2.86816 130.988 2.86816L130.977 2.88086C130.143 2.88086 129.471 3.05557 128.937 3.39355C128.402 3.73158 128.141 4.24508 128.141 4.93359C128.141 5.62227 128.402 6.1486 128.937 6.51172C129.471 6.8748 130.603 7.2628 132.332 7.68848C134.061 8.1142 135.367 8.703 136.25 9.4668C137.133 10.2306 137.568 11.3575 137.568 12.835C137.568 14.3124 137.008 15.5274 135.901 16.4414C134.794 17.3677 133.327 17.8311 131.523 17.8311C128.887 17.831 126.536 16.9168 124.496 15.0889L126.287 12.9229C127.991 14.4127 129.77 15.1638 131.61 15.1514C132.531 15.1514 133.252 14.9505 133.8 14.5498C134.347 14.1492 134.608 13.6236 134.608 12.9727C134.608 12.3216 134.359 11.8084 133.85 11.4453C133.34 11.0822 132.468 10.744 131.225 10.4561C129.981 10.1556 129.048 9.88028 128.401 9.62988C127.755 9.37946 127.182 9.05383 126.685 8.64062C125.69 7.87682 125.18 6.71143 125.18 5.13379C125.18 3.55633 125.74 2.35412 126.884 1.49023C128.016 0.638795 129.421 0.213876 131.101 0.213867Z" fill="white"/>
<path d="M85.9248 3.36914H76.9062V7.87598H85.0039V10.4307H76.9062V14.9883H86.21V17.6807H74.0586V0.689453H85.9248V3.36914Z" fill="white"/>
<path d="M70.9736 3.28125H65.8486V17.668H63V3.29395H57.876V0.664062H70.9736V3.28125Z" fill="white"/>
<path d="M101.722 3.35645H92.7031V7.86426H100.801V10.418H92.7031V14.9756H102.007V17.668H89.8555V0.676758H101.722V3.35645Z" fill="white"/>
<path d="M121.175 17.6426H118.077L108.5 5.24707V17.6553H105.651V0.651367H108.5L118.313 13.3486V0.651367L118.326 0.638672H121.175V17.6426Z" fill="white"/>
</svg>
