<svg width="194" height="213" viewBox="0 0 194 213" fill="none" xmlns="http://www.w3.org/2000/svg">
<path d="M118.911 0C162.371 14.2493 193.877 55.3947 193.877 103.827C193.877 164.03 145.23 213 85.4268 213C50.7612 213 19.864 196.522 0 170.954L7.53809 160.123C24.9767 184.502 53.3859 200.416 85.4395 200.416C138.34 200.416 181.389 157.093 181.389 103.827C181.389 59.6144 151.711 22.2759 111.373 10.8564L118.924 0.0126953L118.911 0Z" fill="white"/>
<path d="M104.233 21.1357C141.685 29.7629 169.722 63.5461 169.722 103.827C169.722 150.607 131.922 188.659 85.4522 188.659C55.8239 188.659 29.7277 173.182 14.7022 149.843L22.5391 138.573C34.766 160.899 58.3862 176.075 85.4522 176.075C125.018 176.075 157.222 143.67 157.222 103.827C157.222 67.7407 130.789 37.7395 96.3848 32.418L104.222 21.1484L104.233 21.1357Z" fill="white"/>
<path d="M88.6113 43.5869C120.192 45.2523 145.38 70.5708 145.38 103.84C145.38 137.109 118.488 164.18 85.4395 164.18V164.192C60.6997 164.192 39.4177 149.029 30.2754 127.455L39.2188 114.596C44.0823 135.756 62.951 151.596 85.4395 151.596C111.597 151.596 132.879 130.172 132.879 103.84C132.879 77.5076 111.597 56.0831 85.4395 56.083C83.4866 56.083 81.5586 56.2084 79.668 56.4463L88.6113 43.5869Z" fill="white"/>
</svg>
