<svg width="47" height="9" viewBox="0 0 47 9" fill="none" xmlns="http://www.w3.org/2000/svg">
<path fill-rule="evenodd" clip-rule="evenodd" d="M4.52734 0.851562C5.12439 0.864084 5.6472 0.951481 6.10742 1.11426C6.56755 1.27703 6.96572 1.5021 7.28906 1.79004C7.61237 2.07795 7.86103 2.42856 8.03516 2.8291C8.20928 3.22975 8.29686 3.68083 8.29687 4.18164C8.29687 4.68249 8.20929 5.15889 8.03516 5.55957C7.86103 5.97259 7.61235 6.32343 7.28906 6.61133C6.96572 6.89924 6.56753 7.12436 6.10742 7.28711C5.64721 7.44988 5.12463 7.52459 4.54004 7.53711V8.55176H3.78125V7.53711H3.75684C3.17235 7.53711 2.6496 7.44982 2.18945 7.28711C1.72941 7.1244 1.33114 6.91165 1.00781 6.61133C0.684476 6.32339 0.434875 5.97267 0.260742 5.55957C0.0866048 5.14637 0 4.69501 0 4.18164C1.29821e-05 3.66832 0.0866178 3.22975 0.260742 2.8291C0.434877 2.42847 0.684448 2.078 1.00781 1.79004C1.33117 1.50215 1.72934 1.277 2.18945 1.11426C2.64955 0.95155 3.17171 0.864104 3.76855 0.851562V0H4.52734V0.851562ZM3.75684 1.47754C2.74933 1.52762 2.00242 1.77775 1.50488 2.22852C1.00746 2.69178 0.758812 3.34284 0.758789 4.18164C0.758789 5.02051 1.00767 5.67148 1.51758 6.13477C2.02755 6.59805 2.7742 6.86122 3.75684 6.92383V1.47754ZM4.52734 6.92383C5.52241 6.86122 6.26932 6.59805 6.7793 6.13477C7.28903 5.6715 7.53809 5.02037 7.53809 4.18164C7.53806 3.34277 7.28853 2.69178 6.79102 2.22852C6.29348 1.76531 5.53476 1.5151 4.52734 1.47754V6.92383Z" fill="white"/>
<path fill-rule="evenodd" clip-rule="evenodd" d="M14.6025 0.0869141C15.2369 0.0869141 15.7849 0.200398 16.2451 0.425781C16.7175 0.65112 17.1032 0.963608 17.4141 1.35156C17.725 1.73967 17.9613 2.19064 18.123 2.69141C18.2847 3.20478 18.3594 3.73111 18.3594 4.26953C18.3594 4.80781 18.2847 5.35863 18.123 5.85938C17.9614 6.3601 17.7373 6.81094 17.4141 7.18652C17.1032 7.57455 16.7051 7.87523 16.2451 8.10059C15.7849 8.32597 15.2245 8.43945 14.6025 8.43945C13.9807 8.43942 13.4208 8.32594 12.9482 8.10059C12.4757 7.87521 12.0775 7.56207 11.7666 7.18652C11.4558 6.79844 11.2193 6.36009 11.0576 5.85938C10.896 5.35864 10.8213 4.82032 10.8213 4.26953C10.8213 3.71859 10.8959 3.19226 11.0576 2.69141C11.2193 2.19064 11.4432 1.73967 11.7666 1.35156C12.0899 0.96355 12.4758 0.651132 12.9482 0.425781C13.4208 0.200429 13.9683 0.0869452 14.6025 0.0869141ZM14.6025 0.738281C14.0802 0.738315 13.6199 0.838755 13.2344 1.03906C12.849 1.23933 12.538 1.51449 12.3018 1.83984C12.0655 2.17788 11.8786 2.55382 11.7666 2.97949C11.6547 3.40522 11.5928 3.83129 11.5928 4.26953C11.5928 4.70773 11.6547 5.14641 11.7666 5.55957C11.8785 5.98502 12.0656 6.36015 12.3018 6.68555C12.5505 7.02357 12.8613 7.28698 13.2344 7.4873C13.6199 7.68761 14.0678 7.78805 14.6025 7.78809C15.125 7.78809 15.5734 7.68765 15.959 7.4873C16.3444 7.28698 16.6553 7.011 16.8916 6.68555C17.1277 6.34766 17.3148 5.97249 17.4268 5.55957C17.5387 5.13389 17.6006 4.70773 17.6006 4.26953C17.6006 3.83129 17.5387 3.40522 17.4268 2.97949C17.3148 2.5538 17.1279 2.1779 16.8916 1.83984C16.6429 1.50198 16.3319 1.23934 15.959 1.03906C15.5734 0.838722 15.125 0.738281 14.6025 0.738281Z" fill="white"/>
<path d="M32.7998 5.58398L35.3252 0.237305H36.1338L32.9863 6.79883C32.8247 7.14934 32.6626 7.42469 32.501 7.625C32.3393 7.82527 32.19 7.98792 32.0283 8.10059C31.8667 8.21321 31.7053 8.28862 31.5312 8.32617C31.3572 8.36371 31.1832 8.37596 30.9844 8.37598V8.36426C30.8103 8.36426 30.6482 8.3637 30.499 8.32617C30.3498 8.30113 30.2377 8.27602 30.1631 8.25098V7.5752C30.2626 7.61274 30.3749 7.64977 30.5117 7.6748C30.6484 7.6998 30.798 7.71289 30.9844 7.71289C31.2703 7.7128 31.5069 7.62523 31.6934 7.4375C31.8799 7.26221 32.0664 6.97414 32.2529 6.59863L32.3525 6.38574L29.3799 0.237305H30.2002L32.7998 5.58398Z" fill="white"/>
<path d="M42.5146 7.28711L45.2637 0.237305H46.3828V8.28906H45.624V1.33984H45.5996L42.8633 8.28906H42.1416L39.3926 1.33984H39.3672V8.28906H38.6094V0.237305H39.7529L42.5146 7.28711Z" fill="white"/>
<path fill-rule="evenodd" clip-rule="evenodd" d="M24.9141 0.237305C25.2748 0.237305 25.5987 0.287525 25.8848 0.387695C26.1707 0.487866 26.4195 0.638618 26.6309 0.838867C26.8421 1.03904 27.0033 1.27681 27.1152 1.56445C27.2272 1.85244 27.29 2.1787 27.29 2.5293C27.29 2.87978 27.2271 3.21778 27.1152 3.49316C27.0033 3.76855 26.8423 4.01943 26.6309 4.21973C26.4195 4.41993 26.1706 4.56976 25.8848 4.66992C25.5987 4.77009 25.2623 4.82031 24.9141 4.82031H22.1279V8.26367H21.3691V0.237305H24.9141ZM22.1279 4.19434H24.752V4.18164C25.2867 4.18164 25.7098 4.04405 26.0332 3.78125C26.3566 3.50578 26.5312 3.09195 26.5312 2.54102C26.5312 1.99031 26.3689 1.57715 26.0332 1.30176C25.7098 1.02644 25.2742 0.901367 24.752 0.901367H22.1279V4.19434Z" fill="white"/>
</svg>
