<svg width="150" height="150" viewBox="0 0 150 150" fill="none" xmlns="http://www.w3.org/2000/svg">
<g clip-path="url(#clip0_2862_3489)">
<path d="M113.296 22.3845L107.612 35.9157L102.849 36.3617L106.047 39.6878L102.698 55.1618L110.447 51.299L124.303 58.9415C124.303 58.9415 120.372 44.2461 121.309 43.3995C122.247 42.5528 132.86 32.5896 132.86 32.5896L117.159 30.6318L113.289 22.377L113.296 22.3845Z" fill="#BABABA" fill-opacity="0"/>
<path d="M78.0621 28.1523L72.4908 41.1922L65.2188 41.9406L70.3364 47.2397L67.5848 61.164L75.1744 56.9686L89.0231 64.6186L86.0372 49.0766L97.5879 38.2667L81.8871 36.3089L78.0621 28.1523Z" fill="#BABABA" fill-opacity="0"/>
<path d="M42.3674 23.4346L37.1968 35.3783L28.8438 36.1872L34.7703 42.3858L32.1396 55.6676L39.8955 51.3059L53.7518 58.9484L50.7583 43.4139L43.4862 35.1969L62.309 32.5965L46.6082 30.6386L42.3674 23.4346Z" fill="#BABABA" fill-opacity="0"/>
<path d="M42.875 135.45V106.323H114.619V135.45" fill="#BABABA" fill-opacity="0"/>
<path d="M75.1744 21.9844L81.8871 36.3093L97.5879 38.2672L86.0372 49.0771L89.0231 64.6191L75.1744 56.969L61.3182 64.6191L64.3117 49.0771L52.7534 38.2672L68.4617 36.3093L75.1744 21.9844Z" stroke="white" stroke-width="2" stroke-linecap="round" stroke-linejoin="round"/>
<path d="M55.2861 80.4554C55.6792 65.2762 68.326 73.085 69.3314 60.2568" stroke="white" stroke-width="2" stroke-linecap="round" stroke-linejoin="round"/>
<path d="M95.056 80.4554C94.6629 65.2762 82.0161 73.085 81.0107 60.2568" stroke="white" stroke-width="2" stroke-linecap="round" stroke-linejoin="round"/>
<path d="M66.7988 67.0381L75.3711 73.8642L83.951 67.0381" stroke="white" stroke-width="2" stroke-linecap="round" stroke-linejoin="round"/>
<path d="M88.0332 32.5973L103.734 30.6394L110.447 16.3145L117.159 30.6394L132.868 32.5973L121.309 43.4147L124.303 58.9491L110.447 51.3066L96.5979 58.9491L99.5839 43.4147" stroke="white" stroke-width="2" stroke-linecap="round" stroke-linejoin="round"/>
<path d="M94.4585 65.4273C98.3894 62.5472 103.961 62.9251 104.611 54.5947" stroke="white" stroke-width="2" stroke-linecap="round" stroke-linejoin="round"/>
<path d="M116.29 54.5869C117.295 67.4076 129.942 59.6063 130.335 74.7855V80.455" stroke="white" stroke-width="2" stroke-linecap="round" stroke-linejoin="round"/>
<path d="M102.071 61.3682L110.651 68.1942L119.231 61.3682" stroke="white" stroke-width="2" stroke-linecap="round" stroke-linejoin="round"/>
<path d="M50.7577 43.4147L53.7512 58.9491L39.8949 51.3066L26.0386 58.9491L29.0321 43.4147L17.4814 32.5973L33.1822 30.6394L39.8949 16.3145L46.6076 30.6394L62.3083 32.5973" stroke="white" stroke-width="2" stroke-linecap="round" stroke-linejoin="round"/>
<path d="M55.8832 65.4273C51.9523 62.5472 46.3811 62.9251 45.731 54.5947" stroke="white" stroke-width="2" stroke-linecap="round" stroke-linejoin="round"/>
<path d="M34.0594 54.5869C33.054 67.4076 20.4072 59.6063 20.0142 74.7855V80.455" stroke="white" stroke-width="2" stroke-linecap="round" stroke-linejoin="round"/>
<path d="M48.2708 61.3682L39.6909 68.1942L31.1187 61.3682" stroke="white" stroke-width="2" stroke-linecap="round" stroke-linejoin="round"/>
<path d="M130.91 80.4551H19.8326C17.8286 80.4551 16.2041 82.0796 16.2041 84.0836V86.1019C16.2041 88.1059 17.8286 89.7304 19.8326 89.7304H130.91C132.913 89.7304 134.538 88.1059 134.538 86.1019V84.0836C134.538 82.0796 132.913 80.4551 130.91 80.4551Z" stroke="white" stroke-width="2" stroke-linecap="round" stroke-linejoin="round"/>
<path d="M19.6963 135.449V89.7002H131.053V135.449" stroke="white" stroke-width="2" stroke-linecap="round" stroke-linejoin="round"/>
<path d="M36.1304 135.45V100.307H114.619V135.45" stroke="white" stroke-width="2" stroke-linecap="round" stroke-linejoin="round"/>
</g>
<defs>
<clipPath id="clip0_2862_3489">
<rect width="150" height="150" fill="white"/>
</clipPath>
</defs>
</svg>
