<svg width="127" height="48" viewBox="0 0 127 48" fill="none" xmlns="http://www.w3.org/2000/svg">
<path d="M21.5909 12.5314C23.39 12.5314 24.9019 13.0659 26.0983 14.1254L26.224 14.2342L24.9104 16.127L24.7486 15.9907C24.2899 15.6014 23.8308 15.3205 23.3721 15.1756C22.9134 15.0218 22.3648 14.9497 21.7533 14.9496C20.575 14.9496 19.5763 15.3298 18.7757 16.0994C17.9841 16.8692 17.5793 17.8839 17.5793 19.1336C17.5793 20.3831 17.9753 21.3971 18.7489 22.1486C19.5315 22.9002 20.476 23.2808 21.5824 23.2808C22.6528 23.2808 23.5701 23.0542 24.2987 22.6105V19.1512L24.2811 19.1421H26.7184V23.6071L26.6739 23.6615C25.4955 24.9745 23.7858 25.644 21.5909 25.644C19.747 25.6439 18.1819 25.0194 16.9316 23.7971C15.6813 22.5746 15.0424 20.9988 15.0424 19.1244C15.0424 17.2499 15.6901 15.6647 16.9585 14.415C18.2358 13.1655 19.792 12.5314 21.5909 12.5314Z" fill="white"/>
<path d="M40.0952 19.9119C40.0952 21.7321 39.5914 23.154 38.5929 24.141C37.5944 25.1371 36.2992 25.6355 34.743 25.6355C33.1868 25.6355 31.891 25.1373 30.8925 24.1502C29.894 23.1632 29.3818 21.7503 29.3818 19.9303V12.8485H31.8191V19.849C31.8191 20.9173 32.0803 21.7773 32.6108 22.393C33.1416 23.0088 33.8345 23.3076 34.743 23.3076C35.6514 23.3076 36.3529 23.0091 36.8746 22.3845C37.3963 21.7597 37.6663 20.9083 37.6663 19.8307V12.8308H40.0952V19.9119Z" fill="white"/>
<path fill-rule="evenodd" clip-rule="evenodd" d="M8.63721 12.9573L14.1426 25.5175H11.5343L10.3104 22.7193H4.4455L3.22224 25.5175H0.613281L6.15467 12.8393H8.58353L8.63721 12.9573ZM5.45264 20.4282H9.3124L7.37793 16.0182L5.45264 20.4282Z" fill="white"/>
<path d="M95.4278 12.686C96.2104 12.686 96.984 12.8126 97.7486 13.0752C98.5132 13.3378 99.1791 13.6997 99.7368 14.1614L98.6393 15.7287C98.2794 15.4027 97.7847 15.1304 97.173 14.9221C96.5524 14.7138 95.9493 14.6057 95.3466 14.6057L95.3381 14.6149C94.7355 14.6149 94.2495 14.7412 93.8628 14.9857C93.476 15.2301 93.2872 15.6015 93.2871 16.0994C93.2871 16.5975 93.4759 16.9782 93.8628 17.2408C94.2496 17.5034 95.0682 17.784 96.3185 18.0918C97.5689 18.3997 98.5133 18.8256 99.152 19.3779C99.7907 19.9303 100.105 20.7453 100.105 21.8139C100.105 22.8824 99.7005 23.7611 98.8999 24.4221C98.0993 25.092 97.0378 25.4271 95.7337 25.4271C93.8267 25.4271 92.1266 24.766 90.6513 23.4439L91.9466 21.8774C93.1789 22.9549 94.4653 23.4981 95.7965 23.4891C96.4622 23.4891 96.9842 23.3439 97.38 23.0541C97.7756 22.7643 97.9648 22.3843 97.9648 21.9135C97.9648 21.4426 97.7847 21.0715 97.416 20.8089C97.0472 20.5462 96.4171 20.3017 95.5175 20.0934C94.6181 19.8761 93.9435 19.677 93.4757 19.4959C93.0079 19.3148 92.5939 19.0793 92.2341 18.7804C91.5145 18.228 91.1457 17.3852 91.1457 16.2442C91.1458 15.1034 91.5507 14.2339 92.3782 13.6091C93.1968 12.9934 94.2134 12.6861 95.4278 12.686Z" fill="white"/>
<path d="M62.7558 14.968H56.2334V18.2274H62.0898V20.075H56.2334V23.3712H62.962V25.3184H54.1739V13.03H62.7558V14.968Z" fill="white"/>
<path d="M51.9428 14.9044H48.2363V25.3092H46.1761V14.9136H42.4703V13.0116H51.9428V14.9044Z" fill="white"/>
<path d="M74.1804 14.9588H67.658V18.219H73.5144V20.0659H67.658V23.362H74.3867V25.3092H65.5986V13.0208H74.1804V14.9588Z" fill="white"/>
<path d="M88.2493 25.2908H86.009L79.0827 16.3262V25.3H77.0225V13.0025H79.0827L86.18 22.1854V13.0025L86.1891 12.9933H88.2493V25.2908Z" fill="white"/>
<path d="M109.758 0C119.534 3.2053 126.621 12.4608 126.621 23.3554C126.621 36.8976 115.678 47.9133 102.226 47.9133C94.428 47.9133 87.4778 44.2067 83.0095 38.4553L84.7052 36.0189C88.6279 41.5028 95.0184 45.0826 102.229 45.0826C114.128 45.0826 123.812 35.3372 123.812 23.3554C123.812 13.41 117.136 5.01085 108.062 2.4421L109.761 0.00285575L109.758 0Z" fill="white"/>
<path d="M106.456 4.75438C114.881 6.69502 121.188 14.2944 121.188 23.3554C121.188 33.8782 112.685 42.4379 102.232 42.4379C95.5668 42.4379 89.6966 38.9565 86.3167 33.7064L88.0796 31.1714C90.83 36.1934 96.1432 39.6072 102.232 39.6072C111.132 39.6072 118.376 32.3178 118.376 23.3554C118.376 15.2379 112.43 8.48932 104.691 7.29226L106.454 4.75723L106.456 4.75438Z" fill="white"/>
<path d="M102.942 9.80466C110.046 10.1793 115.712 15.8745 115.712 23.3582C115.712 30.8419 109.663 36.9314 102.229 36.9314V36.9342C96.6636 36.9342 91.8763 33.5233 89.8198 28.6704L91.8316 25.7777C92.9256 30.5377 97.17 34.1007 102.229 34.1007C108.113 34.1007 112.9 29.2815 112.9 23.3582C112.9 17.4349 108.113 12.6156 102.229 12.6156C101.789 12.6156 101.356 12.6438 100.93 12.6973L102.942 9.80466Z" fill="white"/>
<path d="M2.31813 30.7666C2.55435 30.7666 2.77544 30.797 3.00405 30.8737C3.22509 30.9428 3.42324 31.0426 3.60618 31.1807C3.78913 31.3189 3.94193 31.4798 4.05627 31.6793C4.17821 31.8788 4.2544 32.1091 4.28491 32.3623H3.81985C3.78173 32.1705 3.71302 32.0016 3.61396 31.8559C3.52251 31.7101 3.40814 31.5798 3.271 31.48C3.13378 31.3802 2.98877 31.3033 2.82868 31.2496C2.66867 31.1959 2.49337 31.173 2.31813 31.173C1.99032 31.173 1.71531 31.2345 1.47898 31.3573C1.24281 31.4801 1.05216 31.6487 0.90738 31.8481C0.762564 32.0476 0.648597 32.2857 0.579981 32.5466C0.511369 32.8075 0.472843 33.0687 0.472843 33.3373C0.472854 33.6058 0.51141 33.8742 0.579981 34.1273C0.648567 34.3882 0.762609 34.6186 0.90738 34.818C1.05218 35.0175 1.25037 35.1867 1.47898 35.3094C1.71531 35.4322 1.99032 35.4938 2.31813 35.4938C2.53902 35.4938 2.74477 35.4554 2.93522 35.3711C3.11818 35.2867 3.27862 35.1787 3.41584 35.0329C3.54534 34.8872 3.65225 34.7261 3.73606 34.5343C3.81989 34.3425 3.873 34.135 3.89587 33.9125H4.36093C4.33044 34.2194 4.26158 34.4881 4.14725 34.7336C4.04052 34.9792 3.89584 35.1867 3.7205 35.3555C3.54517 35.5243 3.33911 35.6627 3.10281 35.7547C2.86663 35.8467 2.60759 35.8924 2.31813 35.8924V35.8852C1.93701 35.8852 1.59387 35.8156 1.30421 35.6775C1.01452 35.5394 0.770568 35.3475 0.579981 35.1173C0.389404 34.8794 0.243947 34.6109 0.144846 34.3039C0.0458038 33.997 3.34712e-07 33.667 0 33.3295C0 32.9918 0.0457402 32.6692 0.144846 32.3623C0.243945 32.0554 0.389439 31.7795 0.579981 31.5417C0.770568 31.3038 1.01452 31.1118 1.30421 30.9736C1.59386 30.8356 1.9294 30.7666 2.31813 30.7666Z" fill="white"/>
<path fill-rule="evenodd" clip-rule="evenodd" d="M35.7924 32.9458H37.5C37.9574 32.9458 38.3157 33.0763 38.5672 33.3295C38.8188 33.5827 38.9485 33.9282 38.9485 34.3733C38.9485 34.8184 38.8188 35.1639 38.5672 35.4172C38.3081 35.6703 37.9573 35.8008 37.5 35.8008H35.3274V30.8581H35.7924V32.9458ZM35.7924 35.3711H37.4013V35.3861C37.7442 35.386 38.011 35.2942 38.2015 35.1101C38.3921 34.9259 38.4912 34.6801 38.4912 34.3578C38.4912 34.0355 38.392 33.7902 38.2015 33.606C38.011 33.4219 37.7442 33.3295 37.4013 33.3295H35.7924V35.3711Z" fill="white"/>
<path d="M13.7376 35.179L15.4225 30.8581H16.109V35.7931H15.6439V31.5339H15.6284L13.9513 35.7931H13.5089L11.8241 31.5339H11.8091V35.7931H11.344V30.8581H12.0455L13.7376 35.179Z" fill="white"/>
<path d="M23.854 35.2867L26.6671 30.8581H27.2693V35.7931H26.8042V31.3651L23.9911 35.7931H23.389V30.8581H23.854V35.2867Z" fill="white"/>
<path d="M29.846 32.9997H32.7584V30.8581H33.2235V35.7931H32.7584V33.4061H29.846V35.7931H29.3815V30.8581H29.846V32.9997Z" fill="white"/>
<path d="M40.1456 35.7931H39.6805V30.8581H40.1456V35.7931Z" fill="white"/>
<path d="M42.7145 35.2867L45.5276 30.8581H46.1303V35.7931H45.6653V31.3651L42.8521 35.7931H42.25V30.8581H42.7145V35.2867Z" fill="white"/>
<path d="M9.56759 31.2574H6.64793V33.038H9.37725V33.4372H6.64793V35.3861H9.59811V35.7853H6.18287V30.8581H9.56759V31.2574Z" fill="white"/>
<path d="M21.5898 31.2574H18.6701V33.038H21.3994V33.4372H18.6701V35.3861H21.6203V35.7853H18.2051V30.8581H21.5898V31.2574Z" fill="white"/>
<path d="M24.5938 29.5461C24.6167 29.7225 24.6851 29.8606 24.8069 29.9603C24.9288 30.06 25.089 30.1141 25.2947 30.1142C25.5005 30.1142 25.6534 30.0679 25.7753 29.9681C25.8972 29.8684 25.9808 29.7303 26.0189 29.5539H26.2859C26.2325 29.8454 26.1257 30.0678 25.9657 30.2213C25.798 30.3747 25.5771 30.4517 25.2875 30.4517L25.2947 30.4439C25.0052 30.4439 24.7844 30.3669 24.6243 30.2135C24.4643 30.06 24.365 29.8377 24.3269 29.5461H24.5938Z" fill="white"/>
<path d="M43.4543 29.5461C43.4771 29.7226 43.546 29.8606 43.6679 29.9603C43.7899 30.0601 43.95 30.1142 44.1557 30.1142C44.3615 30.1141 44.5138 30.0678 44.6358 29.9681C44.7577 29.8684 44.8418 29.7304 44.88 29.5539H45.1469C45.0936 29.8454 44.9867 30.0678 44.8267 30.2213C44.659 30.3748 44.4377 30.4517 44.148 30.4517L44.1557 30.4439C43.8661 30.4439 43.6449 30.367 43.4848 30.2135C43.3248 30.06 43.2254 29.8377 43.1873 29.5461H43.4543Z" fill="white"/>
<path fill-rule="evenodd" clip-rule="evenodd" d="M54.0441 31.1778C54.4092 31.1855 54.7289 31.2389 55.0103 31.3384C55.2916 31.438 55.5351 31.5756 55.7328 31.7516C55.9305 31.9277 56.0825 32.1421 56.189 32.387C56.2955 32.632 56.349 32.9078 56.349 33.214C56.349 33.5202 56.2955 33.8115 56.189 34.0565C56.0825 34.3091 55.9305 34.5236 55.7328 34.6996C55.5351 34.8757 55.2916 35.0133 55.0103 35.1128C54.7289 35.2124 54.4094 35.2581 54.0519 35.2657V35.8861H53.5879V35.2657H53.573C53.2156 35.2657 52.896 35.2123 52.6146 35.1128C52.3333 35.0134 52.0898 34.8833 51.8921 34.6996C51.6944 34.5236 51.5418 34.3091 51.4353 34.0565C51.3288 33.8039 51.2759 33.5279 51.2759 33.214C51.2759 32.9001 51.3288 32.632 51.4353 32.387C51.5418 32.142 51.6944 31.9277 51.8921 31.7516C52.0898 31.5756 52.3333 31.4379 52.6146 31.3384C52.896 31.2389 53.2152 31.1855 53.5802 31.1778V30.6571H54.0441V31.1778ZM53.573 31.5606C52.957 31.5912 52.5003 31.7441 52.196 32.0197C51.8919 32.303 51.7399 32.7011 51.7398 33.214C51.7398 33.7269 51.892 34.125 52.2038 34.4082C52.5156 34.6915 52.9722 34.8524 53.573 34.8907V31.5606ZM54.0441 34.8907C54.6526 34.8524 55.1093 34.6915 55.4211 34.4082C55.7328 34.125 55.8851 33.7268 55.8851 33.214C55.8851 32.7011 55.7325 32.303 55.4283 32.0197C55.1241 31.7365 54.6601 31.5835 54.0441 31.5606V34.8907Z" fill="white"/>
<path fill-rule="evenodd" clip-rule="evenodd" d="M60.2047 30.7102C60.5926 30.7102 60.9276 30.7796 61.209 30.9175C61.4979 31.0552 61.7337 31.2463 61.9238 31.4835C62.1139 31.7208 62.2584 31.9966 62.3573 32.3028C62.4562 32.6167 62.5018 32.9385 62.5018 33.2677C62.5018 33.5969 62.4561 33.9337 62.3573 34.2399C62.2585 34.546 62.1215 34.8217 61.9238 35.0513C61.7337 35.2886 61.4903 35.4725 61.209 35.6103C60.9276 35.7481 60.585 35.8175 60.2047 35.8175C59.8245 35.8174 59.4821 35.748 59.1932 35.6103C58.9042 35.4724 58.6607 35.281 58.4706 35.0513C58.2806 34.8141 58.136 34.546 58.0371 34.2399C57.9383 33.9337 57.8926 33.6045 57.8926 33.2677C57.8926 32.9309 57.9382 32.609 58.0371 32.3028C58.136 31.9966 58.2729 31.7208 58.4706 31.4835C58.6683 31.2463 58.9043 31.0552 59.1932 30.9175C59.4821 30.7797 59.8169 30.7103 60.2047 30.7102ZM60.2047 31.1085C59.8853 31.1086 59.6038 31.17 59.3681 31.2924C59.1325 31.4149 58.9423 31.5831 58.7979 31.7821C58.6534 31.9888 58.5391 32.2187 58.4706 32.4789C58.4022 32.7392 58.3643 32.9998 58.3643 33.2677C58.3644 33.5357 58.4022 33.8039 58.4706 34.0565C58.5391 34.3167 58.6535 34.5461 58.7979 34.745C58.9499 34.9517 59.14 35.1128 59.3681 35.2353C59.6038 35.3577 59.8777 35.4192 60.2047 35.4192C60.5241 35.4192 60.7983 35.3578 61.0341 35.2353C61.2698 35.1128 61.4599 34.944 61.6043 34.745C61.7487 34.5384 61.8631 34.309 61.9316 34.0565C62 33.7962 62.0378 33.5357 62.0379 33.2677C62.0379 32.9998 62 32.7392 61.9316 32.4789C61.8631 32.2186 61.7488 31.9888 61.6043 31.7821C61.4523 31.5755 61.2621 31.4149 61.0341 31.2924C60.7983 31.1699 60.5241 31.1085 60.2047 31.1085Z" fill="white"/>
<path d="M71.3315 34.0715L72.8757 30.8022H73.3701L71.4456 34.8143C71.3467 35.0286 71.2476 35.197 71.1488 35.3195C71.0499 35.4419 70.9586 35.5414 70.8598 35.6103C70.7609 35.6791 70.6623 35.7252 70.5558 35.7482C70.4494 35.7711 70.343 35.7786 70.2214 35.7786V35.7715C70.115 35.7715 70.0159 35.7711 69.9247 35.7482C69.8334 35.7329 69.7649 35.7175 69.7193 35.7022V35.289C69.7801 35.312 69.8488 35.3346 69.9324 35.3499C70.016 35.3652 70.1075 35.3732 70.2214 35.3732C70.3963 35.3731 70.5409 35.3196 70.655 35.2048C70.769 35.0976 70.8831 34.9215 70.9971 34.6919L71.058 34.5617L69.2404 30.8022H69.742L71.3315 34.0715Z" fill="white"/>
<path d="M77.2717 35.1128L78.9526 30.8022H79.6369V35.7255H79.1729V31.4764H79.158L77.4849 35.7255H77.0436L75.3627 31.4764H75.3472V35.7255H74.8838V30.8022H75.583L77.2717 35.1128Z" fill="white"/>
<path fill-rule="evenodd" clip-rule="evenodd" d="M66.5097 30.8022C66.7303 30.8022 66.9283 30.8329 67.1033 30.8942C67.2781 30.9554 67.4302 31.0476 67.5595 31.17C67.6886 31.2924 67.7872 31.4378 67.8556 31.6137C67.9241 31.7898 67.9625 31.9893 67.9625 32.2037C67.9625 32.418 67.9241 32.6246 67.8556 32.793C67.7872 32.9614 67.6887 33.1148 67.5595 33.2373C67.4303 33.3597 67.2781 33.4513 67.1033 33.5126C66.9283 33.5738 66.7227 33.6045 66.5097 33.6045H64.8061V35.71H64.3422V30.8022H66.5097ZM64.8061 33.2218H66.4106V33.214C66.7375 33.214 66.9963 33.1299 67.194 32.9692C67.3918 32.8007 67.4986 32.5477 67.4986 32.2108C67.4985 31.8741 67.3993 31.6215 67.194 31.4531C66.9963 31.2847 66.7299 31.2083 66.4106 31.2083H64.8061V33.2218Z" fill="white"/>
</svg>
