<svg width="217" height="213" viewBox="0 0 217 213" fill="none" xmlns="http://www.w3.org/2000/svg">
<path d="M29.0059 74.3262C31.4935 74.3262 33.584 75.0653 35.2383 76.5303L35.4121 76.6807L33.5957 79.2979L33.3721 79.1094C32.7378 78.5711 32.103 78.1827 31.4688 77.9824C30.8346 77.7697 30.076 77.6699 29.2305 77.6699C27.6012 77.6699 26.2203 78.1956 25.1133 79.2598C24.0187 80.3241 23.459 81.7271 23.459 83.4551C23.4591 85.1828 24.0066 86.5848 25.0762 87.624C26.1583 88.6632 27.4643 89.1895 28.9941 89.1895C30.4741 89.1894 31.7426 88.8762 32.75 88.2627V83.4795L32.7256 83.4668H36.0957V89.6406L36.0342 89.7158C34.4048 91.5313 32.0407 92.457 29.0059 92.457C26.4563 92.4569 24.2923 91.5935 22.5635 89.9033C20.8346 88.213 19.9512 86.0342 19.9512 83.4424C19.9512 80.8505 20.8468 78.6586 22.6006 76.9307C24.3667 75.203 26.5185 74.3263 29.0059 74.3262Z" fill="white"/>
<path d="M54.5918 84.5312C54.5918 87.048 53.8953 89.0141 52.5146 90.3789C51.134 91.7562 49.3431 92.4453 47.1914 92.4453C45.0396 92.4453 43.2478 91.7564 41.8672 90.3916C40.4866 89.0268 39.7783 87.0733 39.7783 84.5566V74.7646H43.1484V84.4443C43.1485 85.9214 43.5096 87.1106 44.2432 87.9619C44.977 88.8134 45.9351 89.2266 47.1914 89.2266C48.4474 89.2265 49.4173 88.8138 50.1387 87.9502C50.8601 87.0862 51.2334 85.9089 51.2334 84.4189V74.7402H54.5918V84.5312Z" fill="white"/>
<path fill-rule="evenodd" clip-rule="evenodd" d="M11.0947 74.915L18.707 92.2822H15.1006L13.4082 88.4131H5.29883L3.60742 92.2822H0L7.66211 74.752H11.0205L11.0947 74.915ZM6.69141 85.2451H12.0283L9.35352 79.1475L6.69141 85.2451Z" fill="white"/>
<path d="M131.101 74.54C132.183 74.54 133.252 74.715 134.31 75.0781C135.367 75.4412 136.287 75.9416 137.059 76.5801L135.541 78.7471C135.043 78.2963 134.359 77.9198 133.514 77.6318C132.655 77.3439 131.822 77.1943 130.988 77.1943L130.977 77.207C130.143 77.207 129.471 77.3817 128.937 77.7197C128.402 78.0577 128.141 78.5713 128.141 79.2598C128.141 79.9484 128.402 80.4748 128.937 80.8379C129.471 81.201 130.603 81.589 132.332 82.0146C134.061 82.4404 135.367 83.0292 136.25 83.793C137.133 84.5568 137.568 85.6836 137.568 87.1611C137.568 88.6386 137.008 89.8535 135.901 90.7676C134.794 91.6939 133.327 92.1572 131.523 92.1572C128.887 92.1572 126.536 91.243 124.496 89.415L126.287 87.249C127.991 88.7388 129.77 89.49 131.61 89.4775C132.531 89.4775 133.253 89.2767 133.8 88.876C134.347 88.4753 134.608 87.9498 134.608 87.2988C134.608 86.6478 134.359 86.1346 133.85 85.7715C133.34 85.4084 132.468 85.0702 131.225 84.7822C129.981 84.4818 129.048 84.2065 128.401 83.9561C127.755 83.7056 127.182 83.38 126.685 82.9668C125.69 82.203 125.18 81.0376 125.18 79.46C125.18 77.8825 125.74 76.6803 126.884 75.8164C128.016 74.965 129.421 74.54 131.101 74.54Z" fill="white"/>
<path d="M85.9248 77.6953H76.9062V82.2021H85.0039V84.7568H76.9062V89.3145H86.21V92.0068H74.0586V75.0156H85.9248V77.6953Z" fill="white"/>
<path d="M70.9736 77.6074H65.8486V91.9941H63V77.6201H57.876V74.9902H70.9736V77.6074Z" fill="white"/>
<path d="M101.722 77.6826H92.7031V82.1904H100.801V84.7441H92.7031V89.3018H102.007V91.9941H89.8555V75.0029H101.722V77.6826Z" fill="white"/>
<path d="M121.175 91.9688H118.077L108.5 79.5732V91.9814H105.651V74.9775H108.5L118.313 87.6748V74.9775L118.326 74.9648H121.175V91.9688Z" fill="white"/>
<path d="M142.021 0C185.481 14.2493 216.987 55.3947 216.987 103.827C216.987 164.03 168.341 213 108.537 213C73.8715 213 42.9744 196.522 23.1104 170.954L30.6484 160.123C48.0871 184.502 76.4962 200.416 108.55 200.416C161.45 200.416 204.499 157.093 204.499 103.827C204.499 59.6144 174.821 22.2759 134.483 10.8564L142.034 0.0126953L142.021 0Z" fill="white"/>
<path d="M127.344 21.1357C164.796 29.7629 192.832 63.5461 192.832 103.827C192.832 150.607 155.032 188.659 108.562 188.659C78.9343 188.659 52.8381 173.182 37.8125 149.843L45.6494 138.573C57.8763 160.899 81.4966 176.075 108.562 176.075C148.129 176.075 180.332 143.67 180.332 103.827C180.332 67.7407 153.9 37.7395 119.495 32.418L127.332 21.1484L127.344 21.1357Z" fill="white"/>
<path d="M111.722 43.5869C143.303 45.2523 168.49 70.5708 168.49 103.84C168.49 137.109 141.598 164.18 108.55 164.18V164.192C83.81 164.192 62.5281 149.029 53.3857 127.455L62.3291 114.596C67.1927 135.756 86.0614 151.596 108.55 151.596C134.708 151.596 155.989 130.172 155.989 103.84C155.989 77.5076 134.708 56.0831 108.55 56.083C106.597 56.083 104.669 56.2084 102.778 56.4463L111.722 43.5869Z" fill="white"/>
<path d="M65.2646 98.5684C65.6501 98.5684 66.0108 98.618 66.3838 98.7432C66.7444 98.8559 67.0677 99.0188 67.3662 99.2441C67.6647 99.4695 67.914 99.7321 68.1006 100.058C68.2995 100.383 68.4238 100.759 68.4736 101.172H67.7148C67.6526 100.859 67.5405 100.584 67.3789 100.346C67.2297 100.108 67.0431 99.8952 66.8193 99.7324C66.5954 99.5696 66.3589 99.4441 66.0977 99.3564C65.8366 99.2688 65.5506 99.2315 65.2646 99.2314C64.7298 99.2314 64.2811 99.3319 63.8955 99.5322C63.5102 99.7325 63.1991 100.008 62.9629 100.333C62.7266 100.658 62.5407 101.047 62.4287 101.473C62.3168 101.898 62.2539 102.324 62.2539 102.763C62.2539 103.201 62.3168 103.639 62.4287 104.052C62.5406 104.477 62.7267 104.853 62.9629 105.179C63.1991 105.504 63.5225 105.78 63.8955 105.98C64.2811 106.181 64.7298 106.281 65.2646 106.281C65.6251 106.281 65.9607 106.219 66.2715 106.081C66.57 105.943 66.8318 105.767 67.0557 105.529C67.267 105.292 67.4414 105.029 67.5781 104.716C67.7149 104.403 67.8016 104.064 67.8389 103.701H68.5977C68.5479 104.202 68.4356 104.64 68.249 105.041C68.0749 105.442 67.8388 105.78 67.5527 106.056C67.2667 106.331 66.9305 106.557 66.5449 106.707C66.1596 106.857 65.7369 106.932 65.2646 106.932V106.92C64.6428 106.92 64.083 106.806 63.6104 106.581C63.1377 106.356 62.7397 106.043 62.4287 105.667C62.1178 105.279 61.8804 104.841 61.7188 104.34C61.5572 103.839 61.4824 103.301 61.4824 102.75C61.4824 102.199 61.5571 101.673 61.7188 101.172C61.8804 100.671 62.1178 100.221 62.4287 99.833C62.7397 99.4448 63.1377 99.1316 63.6104 98.9062C64.0829 98.681 64.6304 98.5684 65.2646 98.5684Z" fill="white"/>
<path fill-rule="evenodd" clip-rule="evenodd" d="M119.881 102.124H122.667C123.413 102.124 123.998 102.337 124.408 102.75C124.819 103.163 125.03 103.727 125.03 104.453C125.03 105.179 124.819 105.743 124.408 106.156C123.985 106.569 123.413 106.782 122.667 106.782H119.122V98.7178H119.881V102.124ZM119.881 106.081H122.506V106.105C123.065 106.105 123.501 105.956 123.812 105.655C124.122 105.355 124.284 104.954 124.284 104.428C124.284 103.902 124.122 103.502 123.812 103.201C123.501 102.901 123.065 102.75 122.506 102.75H119.881V106.081Z" fill="white"/>
<path d="M83.8965 105.768L86.6455 98.7178H87.7656V106.77H87.0068V99.8203H86.9814L84.2451 106.77H83.5234L80.7744 99.8203H80.75V106.77H79.9912V98.7178H81.1357L83.8965 105.768Z" fill="white"/>
<path d="M100.402 105.943L104.992 98.7178H105.975V106.77H105.216V99.5449L100.626 106.77H99.6436V98.7178H100.402V105.943Z" fill="white"/>
<path d="M110.179 102.212H114.931V98.7178H115.689V106.77H114.931V102.875H110.179V106.77H109.421V98.7178H110.179V102.212Z" fill="white"/>
<path d="M126.983 106.77H126.225V98.7178H126.983V106.77Z" fill="white"/>
<path d="M131.175 105.943L135.765 98.7178H136.748V106.77H135.989V99.5449L131.399 106.77H130.417V98.7178H131.175V105.943Z" fill="white"/>
<path d="M77.0928 99.3691H72.3291V102.274H76.7822V102.926H72.3291V106.105H77.1426V106.757H71.5703V98.7178H77.0928V99.3691Z" fill="white"/>
<path d="M96.708 99.3691H91.9443V102.274H96.3975V102.926H91.9443V106.105H96.7578V106.757H91.1855V98.7178H96.708V99.3691Z" fill="white"/>
<path d="M101.609 96.5771C101.647 96.8649 101.758 97.0902 101.957 97.2529C102.156 97.4156 102.417 97.5038 102.753 97.5039C103.089 97.5039 103.338 97.4284 103.537 97.2656C103.736 97.1029 103.872 96.8776 103.935 96.5898H104.37C104.283 97.0655 104.109 97.4283 103.848 97.6787C103.574 97.929 103.214 98.0546 102.741 98.0547L102.753 98.042C102.281 98.0419 101.92 97.9164 101.659 97.666C101.398 97.4156 101.236 97.0529 101.174 96.5771H101.609Z" fill="white"/>
<path d="M132.382 96.5771C132.419 96.8651 132.531 97.0902 132.73 97.2529C132.929 97.4156 133.191 97.5039 133.526 97.5039C133.862 97.5039 134.111 97.4283 134.31 97.2656C134.509 97.1029 134.646 96.8777 134.708 96.5898H135.144C135.057 97.0654 134.882 97.4283 134.621 97.6787C134.347 97.9291 133.986 98.0547 133.514 98.0547L133.526 98.042C133.054 98.042 132.693 97.9164 132.432 97.666C132.171 97.4156 132.008 97.0528 131.946 96.5771H132.382Z" fill="white"/>
<path fill-rule="evenodd" clip-rule="evenodd" d="M94.917 111.854C95.514 111.866 96.0369 111.953 96.4971 112.116C96.9572 112.279 97.3554 112.504 97.6787 112.792C98.002 113.08 98.2507 113.431 98.4248 113.831C98.5989 114.232 98.6865 114.683 98.6865 115.184C98.6865 115.684 98.5989 116.161 98.4248 116.562C98.2507 116.975 98.002 117.325 97.6787 117.613C97.3554 117.901 96.9572 118.126 96.4971 118.289C96.0369 118.452 95.5143 118.527 94.9297 118.539V119.554H94.1709V118.539H94.1465C93.562 118.539 93.0393 118.452 92.5791 118.289C92.1191 118.126 91.7208 117.914 91.3975 117.613C91.0741 117.325 90.8245 116.975 90.6504 116.562C90.4763 116.148 90.3896 115.697 90.3896 115.184C90.3897 114.67 90.4763 114.232 90.6504 113.831C90.8245 113.43 91.0741 113.08 91.3975 112.792C91.7208 112.504 92.119 112.279 92.5791 112.116C93.0392 111.954 93.5614 111.866 94.1582 111.854V111.002H94.917V111.854ZM94.1465 112.479C93.139 112.53 92.3921 112.78 91.8945 113.23C91.3971 113.694 91.1485 114.345 91.1484 115.184C91.1484 116.022 91.3973 116.673 91.9072 117.137C92.4172 117.6 93.1639 117.863 94.1465 117.926V112.479ZM94.917 117.926C95.9121 117.863 96.659 117.6 97.1689 117.137C97.6787 116.673 97.9277 116.022 97.9277 115.184C97.9277 114.345 97.6782 113.694 97.1807 113.23C96.6831 112.767 95.9244 112.517 94.917 112.479V117.926Z" fill="white"/>
<path fill-rule="evenodd" clip-rule="evenodd" d="M104.992 111.089C105.627 111.089 106.175 111.202 106.635 111.428C107.107 111.653 107.493 111.966 107.804 112.354C108.115 112.742 108.351 113.193 108.513 113.693C108.674 114.207 108.749 114.733 108.749 115.271C108.749 115.81 108.674 116.361 108.513 116.861C108.351 117.362 108.127 117.813 107.804 118.188C107.493 118.576 107.095 118.877 106.635 119.103C106.175 119.328 105.614 119.441 104.992 119.441C104.37 119.441 103.81 119.328 103.338 119.103C102.865 118.877 102.467 118.564 102.156 118.188C101.845 117.8 101.609 117.362 101.447 116.861C101.286 116.361 101.211 115.822 101.211 115.271C101.211 114.721 101.286 114.194 101.447 113.693C101.609 113.193 101.833 112.742 102.156 112.354C102.48 111.966 102.865 111.653 103.338 111.428C103.81 111.202 104.358 111.089 104.992 111.089ZM104.992 111.74C104.47 111.74 104.01 111.841 103.624 112.041C103.239 112.241 102.928 112.516 102.691 112.842C102.455 113.18 102.268 113.556 102.156 113.981C102.044 114.407 101.982 114.833 101.982 115.271C101.982 115.71 102.044 116.148 102.156 116.562C102.268 116.987 102.455 117.362 102.691 117.688C102.94 118.026 103.251 118.289 103.624 118.489C104.01 118.69 104.457 118.79 104.992 118.79C105.515 118.79 105.963 118.69 106.349 118.489C106.734 118.289 107.045 118.013 107.281 117.688C107.517 117.35 107.704 116.974 107.816 116.562C107.928 116.136 107.99 115.71 107.99 115.271C107.99 114.833 107.928 114.407 107.816 113.981C107.704 113.556 107.518 113.18 107.281 112.842C107.033 112.504 106.722 112.241 106.349 112.041C105.963 111.841 105.515 111.74 104.992 111.74Z" fill="white"/>
<path d="M123.189 116.586L125.715 111.239H126.523L123.376 117.801C123.214 118.151 123.052 118.427 122.891 118.627C122.729 118.827 122.58 118.99 122.418 119.103C122.256 119.215 122.095 119.291 121.921 119.328C121.747 119.366 121.573 119.378 121.374 119.378V119.366C121.2 119.366 121.038 119.366 120.889 119.328C120.739 119.303 120.627 119.278 120.553 119.253V118.577C120.652 118.615 120.765 118.652 120.901 118.677C121.038 118.702 121.188 118.715 121.374 118.715C121.66 118.715 121.897 118.627 122.083 118.439C122.27 118.264 122.456 117.976 122.643 117.601L122.742 117.388L119.77 111.239H120.59L123.189 116.586Z" fill="white"/>
<path d="M132.904 118.289L135.653 111.239H136.772V119.291H136.014V112.342H135.989L133.253 119.291H132.531L129.782 112.342H129.757V119.291H128.999V111.239H130.143L132.904 118.289Z" fill="white"/>
<path fill-rule="evenodd" clip-rule="evenodd" d="M115.304 111.239C115.664 111.239 115.988 111.289 116.274 111.39C116.56 111.49 116.809 111.641 117.021 111.841C117.232 112.041 117.393 112.279 117.505 112.566C117.617 112.854 117.68 113.181 117.68 113.531C117.68 113.882 117.617 114.22 117.505 114.495C117.393 114.771 117.232 115.021 117.021 115.222C116.809 115.422 116.56 115.572 116.274 115.672C115.988 115.772 115.652 115.822 115.304 115.822H112.518V119.266H111.759V111.239H115.304ZM112.518 115.196H115.142V115.184C115.676 115.184 116.099 115.046 116.423 114.783C116.746 114.508 116.921 114.094 116.921 113.543C116.921 112.992 116.759 112.579 116.423 112.304C116.099 112.028 115.664 111.903 115.142 111.903H112.518V115.196Z" fill="white"/>
</svg>
