<svg width="88" height="24" viewBox="0 0 88 24" fill="none" xmlns="http://www.w3.org/2000/svg">
<path d="M0 0.00390544H8.25587C9.0064 0.00390544 11.258 -0.246042 12.2587 3.25323C13.0092 5.50276 14.01 9.00203 15.511 14.2509H16.0114C17.5124 8.75208 18.7633 5.00286 19.2637 3.25323C20.2644 -0.246042 22.7662 0.00390544 23.7669 0.00390544H31.5224V23.9989H23.5167V9.75187H23.0164L18.7633 23.9989H12.7591L8.50604 9.75187H7.75551V23.9989H0M34.7747 0.00390544H42.7804V14.2509H43.5309L48.7847 2.50338C49.7854 0.253853 52.037 0.00390544 52.037 0.00390544H59.5423V23.9989H51.5366V9.75187H51.0363L45.7825 21.4994C44.7818 23.749 42.28 23.9989 42.28 23.9989H34.7747M70.2999 16.7504V23.9989H62.7946V11.5015H87.312C86.3113 14.5009 82.8088 16.7504 78.806 16.7504" fill="white"/>
<path d="M87.8123 10.0003C88.813 5.50119 85.8109 0.00233513 79.3062 0.00233513H62.2942C62.7945 5.25124 67.2977 10.0003 72.0511 10.0003" fill="white"/>
</svg>
