<svg width="258" height="90" viewBox="0 0 258 90" fill="none" xmlns="http://www.w3.org/2000/svg">
<path d="M146.205 20.0994H153.722V39.4421H149.059V23.0888L141.532 39.4421H135.857L128.419 23.0961V39.4421H123.916V20.0994H131.567L138.845 36.1069L146.203 20.0994H146.205ZM171.073 20.0994L180.046 39.4421H175.09L173.086 34.8901H162.146L160.116 39.4421H155.257L164.354 20.0994H171.075H171.073ZM171.756 31.8602L167.651 22.5144L163.492 31.8602H171.756ZM198.531 36.3037H186.243V20.0994H181.58V39.4421H198.532V36.3037H198.531ZM205.286 20.0994H200.623V39.4421H205.286V20.0994ZM212.53 22.9195L223.896 39.4421H230.892V20.0994H226.389V35.8031L215.554 20.0994H208.027V39.4421H212.53V22.9195ZM257.214 39.4407H252.258L250.254 34.8886H239.314L237.284 39.4407H232.425L241.522 20.098H248.243L257.216 39.4407H257.214ZM248.924 31.8602L244.819 22.5144L240.66 31.8602H248.924ZM138.845 63.334L131.567 47.3265H123.916V66.6692H128.419V50.3231L135.857 66.6692H141.532L149.059 50.3159V66.6692H153.722V47.3265H146.205L138.847 63.334H138.845ZM173.495 58.5389C173.495 59.4186 173.355 60.1927 173.077 60.8626C172.799 61.5326 172.393 62.094 171.859 62.5469C171.324 62.9998 170.667 63.3427 169.891 63.5742C169.114 63.8072 168.223 63.9229 167.217 63.9229C166.212 63.9229 165.321 63.8072 164.54 63.5742C163.76 63.3427 163.104 62.9998 162.572 62.5469C162.04 62.094 161.634 61.5326 161.357 60.8626C161.079 60.1927 160.94 59.4186 160.94 58.5389V47.3251H156.277V58.6864C156.277 59.9844 156.538 61.152 157.062 62.1866C157.586 63.2212 158.326 64.1009 159.284 64.8244C160.242 65.5478 161.392 66.1035 162.737 66.4912C164.082 66.879 165.576 67.0729 167.219 67.0729C168.313 67.0729 169.342 66.9861 170.308 66.8125C171.275 66.6388 172.163 66.3856 172.973 66.0514C173.783 65.7171 174.507 65.3091 175.149 64.8273C175.79 64.3454 176.335 63.7927 176.781 63.1705C177.227 62.5483 177.569 61.8625 177.805 61.1115C178.042 60.3606 178.16 59.5532 178.16 58.6864V47.3251H173.497V58.5389H173.495ZM200.681 57.6461C200.199 57.2583 199.638 56.9371 198.998 56.6824C198.356 56.4278 197.676 56.218 196.959 56.053C196.242 55.8881 195.504 55.7549 194.746 55.6537C193.99 55.5524 193.257 55.4612 192.548 55.3802L191.368 55.2514C190.399 55.1429 189.534 55.0344 188.775 54.9273C188.015 54.8202 187.372 54.6784 186.846 54.5048C186.32 54.3312 185.92 54.1098 185.645 53.8392C185.369 53.5686 185.232 53.2141 185.232 52.7771C185.232 52.2953 185.397 51.8757 185.729 51.5198C186.059 51.1638 186.497 50.8686 187.042 50.6371C187.585 50.4056 188.204 50.232 188.899 50.1162C189.593 50.0019 190.305 49.944 191.031 49.944C191.9 49.944 192.691 50.0222 193.407 50.177C194.123 50.3318 194.736 50.5561 195.247 50.8469C195.759 51.1378 196.155 51.4894 196.436 51.9017C196.717 52.3141 196.857 52.7771 196.857 53.2908H201.361C201.361 52.304 201.12 51.4156 200.638 50.6255C200.155 49.8355 199.469 49.1685 198.576 48.6201C197.683 48.0717 196.605 47.6521 195.34 47.3583C194.075 47.0646 192.657 46.9185 191.084 46.9185C190.115 46.9185 189.183 46.9749 188.292 47.0878C187.4 47.2006 186.568 47.3714 185.797 47.5985C185.026 47.8257 184.322 48.1079 183.687 48.4436C183.052 48.7792 182.509 49.1699 182.06 49.6141C181.611 50.0583 181.261 50.5575 181.014 51.1117C180.766 51.6659 180.641 52.2722 180.641 52.9305C180.641 53.463 180.721 53.939 180.88 54.3601C181.04 54.7812 181.263 55.1588 181.55 55.4902C181.837 55.8215 182.177 56.1109 182.574 56.3598C182.97 56.6072 183.403 56.8242 183.873 57.0094C184.342 57.1947 184.84 57.3509 185.366 57.4797C185.892 57.6085 186.432 57.7199 186.985 57.8139C187.537 57.908 188.095 57.989 188.656 58.057C189.217 58.125 189.764 58.1872 190.296 58.2466L191.786 58.4159C192.673 58.5157 193.477 58.6155 194.197 58.7168C194.919 58.8181 195.536 58.9599 196.05 59.1393C196.565 59.3188 196.96 59.5561 197.238 59.8498C197.517 60.1435 197.656 60.5284 197.656 61.0059C197.656 61.5239 197.489 61.9753 197.154 62.3588C196.82 62.7422 196.365 63.0591 195.789 63.3094C195.213 63.5597 194.54 63.7449 193.772 63.8679C193.004 63.9895 192.186 64.0503 191.316 64.0503C190.299 64.0503 189.383 63.9707 188.567 63.8101C187.752 63.6495 187.059 63.4194 186.488 63.117C185.917 62.8146 185.48 62.4456 185.175 62.0072C184.871 61.5702 184.719 61.0768 184.719 60.5255H180.215C180.215 61.5586 180.464 62.4803 180.964 63.2921C181.464 64.1038 182.189 64.7896 183.141 65.3482C184.093 65.9067 185.258 66.335 186.639 66.6301C188.018 66.9253 189.592 67.0729 191.36 67.0729C192.986 67.0729 194.466 66.9456 195.801 66.6909C197.137 66.4363 198.282 66.0557 199.237 65.5478C200.192 65.04 200.932 64.4076 201.458 63.648C201.984 62.8884 202.248 62.0028 202.248 60.9929C202.248 60.2448 202.107 59.5966 201.826 59.0482C201.545 58.4998 201.164 58.0324 200.683 57.6447L200.681 57.6461ZM204.303 66.6678H208.965V47.3251H204.303V66.6678ZM218.09 51.8873C218.729 51.294 219.509 50.844 220.43 50.5344C221.352 50.2247 222.401 50.0714 223.578 50.0714C225.48 50.0714 227.012 50.4823 228.17 51.3027C229.327 52.1231 230.103 53.3458 230.492 54.9678H235.138C234.884 53.7148 234.431 52.5905 233.777 51.5964C233.124 50.6024 232.299 49.7574 231.304 49.0643C230.308 48.3712 229.158 47.8387 227.855 47.4712C226.552 47.1037 225.122 46.9199 223.569 46.9199C222.375 46.9199 221.246 47.0299 220.182 47.2484C219.119 47.4669 218.138 47.7809 217.239 48.1918C216.341 48.6013 215.534 49.1034 214.82 49.6966C214.105 50.2899 213.495 50.9583 212.994 51.705C212.491 52.4516 212.107 53.2677 211.842 54.1561C211.575 55.0445 211.443 55.9908 211.443 56.9964C211.443 58.002 211.577 58.9483 211.842 59.8368C212.107 60.7252 212.492 61.5427 212.994 62.2879C213.497 63.0345 214.105 63.7044 214.82 64.2962C215.535 64.8895 216.341 65.3916 217.239 65.8011C218.138 66.212 219.119 66.526 220.182 66.7445C221.246 66.9629 222.375 67.0729 223.569 67.0729C225.124 67.0729 226.552 66.8891 227.855 66.5216C229.158 66.1541 230.308 65.6231 231.304 64.9285C232.299 64.234 233.124 63.3904 233.777 62.3964C234.431 61.4024 234.884 60.2781 235.138 59.025H230.492C230.103 60.6485 229.327 61.8697 228.17 62.6901C227.01 63.5105 225.48 63.9215 223.578 63.9215C222.401 63.9215 221.352 63.7667 220.43 63.4585C219.509 63.1503 218.728 62.6988 218.09 62.1056C217.451 61.5123 216.964 60.7874 216.627 59.9279C216.289 59.0684 216.121 58.0918 216.121 56.9964C216.121 55.9011 216.289 54.923 216.627 54.0649C216.964 53.2054 217.451 52.4805 218.09 51.8873ZM44.539 15.0858C19.9373 15.1089 0 34.5862 0 58.6083H12.6008C13.0587 41.4823 27.4332 27.6438 44.5825 27.6366C61.742 27.6293 76.1324 41.4722 76.5917 58.6083H88.9766C88.9708 55.5668 88.6173 40.5389 76.2961 28.2139C63.6866 15.6024 47.8283 15.1032 44.5419 15.0858H44.539ZM45.4519 0V13.1035C70.2102 13.1035 91.2125 33.8859 91.2125 58.6083H104.145C103.367 25.4922 76.5077 0 45.4519 0ZM44.7506 44.4471C36.2708 44.4471 29.3951 51.3114 29.3951 59.7803C29.3951 68.2493 36.2694 75.1136 44.7506 75.1136C53.2318 75.1136 60.106 68.2493 60.106 59.7803C60.106 51.3114 53.2318 44.4471 44.7506 44.4471ZM44.0217 29.7476C28.3446 29.998 14.6179 42.3534 14.6179 59.7803C14.6179 77.2073 30.6312 89.1084 43.6363 89.4658V76.9353C35.9593 76.9353 27.3766 71.2271 27.3766 59.7803C27.3766 48.3336 35.3579 42.5299 44.1739 42.3259C53.284 42.1146 61.1769 49.3059 61.7753 58.5895H74.4066C73.7299 42.336 60.0539 29.4915 44.0217 29.7476Z" fill="#E63251"/>
</svg>
