<svg width="76" height="11" viewBox="0 0 76 11" fill="none" xmlns="http://www.w3.org/2000/svg">
<path d="M3.78223 1.99121C4.16764 1.99125 4.52837 2.04085 4.90137 2.16602C5.26202 2.27871 5.58531 2.44164 5.88379 2.66699C6.18229 2.89237 6.43159 3.15493 6.61816 3.48047C6.81712 3.80592 6.94143 4.18167 6.99121 4.59473H6.23242C6.17021 4.28184 6.05812 4.00637 5.89648 3.76855C5.74729 3.53076 5.56067 3.31802 5.33691 3.15527C5.11303 2.9925 4.87643 2.86695 4.61523 2.7793C4.35417 2.6917 4.06815 2.65434 3.78223 2.6543C3.24738 2.6543 2.79868 2.75474 2.41309 2.95508C2.02776 3.15537 1.71669 3.4305 1.48047 3.75586C1.24419 4.08135 1.05824 4.46989 0.946289 4.89551C0.834343 5.32123 0.771484 5.7473 0.771484 6.18555C0.771502 6.62363 0.834409 7.06155 0.946289 7.47461C1.05819 7.90018 1.24426 8.27609 1.48047 8.60156C1.71672 8.92701 2.04008 9.203 2.41309 9.40332C2.79868 9.60366 3.24738 9.7041 3.78223 9.7041C4.14264 9.70405 4.47833 9.64148 4.78906 9.50391C5.08758 9.36617 5.34935 9.19005 5.57324 8.95215C5.78453 8.71435 5.95896 8.45152 6.0957 8.13867C6.23248 7.82569 6.31914 7.48708 6.35644 7.12402H7.11523C7.06549 7.62481 6.95313 8.06323 6.7666 8.46387C6.59246 8.86455 6.35639 9.20305 6.07031 9.47852C5.78425 9.75395 5.44805 9.97964 5.0625 10.1299C4.67716 10.28 4.25451 10.3544 3.78223 10.3545V10.3428C3.1604 10.3428 2.60054 10.2292 2.12793 10.0039C1.65527 9.77852 1.25725 9.46548 0.946289 9.08984C0.635346 8.70169 0.398021 8.26353 0.236328 7.7627C0.0747329 7.26198 5.46112e-07 6.72362 0 6.17285C0 5.62191 0.0746292 5.09558 0.236328 4.59473C0.398017 4.094 0.635403 3.64394 0.946289 3.25586C1.25725 2.8677 1.65527 2.55449 2.12793 2.3291C2.60053 2.10381 3.14799 1.99121 3.78223 1.99121Z" fill="white"/>
<path fill-rule="evenodd" clip-rule="evenodd" d="M58.3984 5.54688H61.1846C61.9307 5.54688 62.5153 5.75979 62.9258 6.17285C63.3362 6.58605 63.5478 7.14974 63.5478 7.87598C63.5478 8.6021 63.3362 9.16594 62.9258 9.5791C62.5029 9.99202 61.9306 10.2051 61.1846 10.2051H57.6396V2.14062H58.3984V5.54688ZM58.3984 9.50391H61.0234V9.52832C61.5829 9.52827 62.0182 9.37845 62.3291 9.07812C62.64 8.77761 62.8017 8.37648 62.8017 7.85059C62.8017 7.32484 62.6399 6.92449 62.3291 6.62402C62.0182 6.32357 61.583 6.17291 61.0234 6.17285H58.3984V9.50391Z" fill="white"/>
<path d="M22.4141 9.19043L25.1631 2.14062H26.2832V10.1924H25.5244V3.24316H25.499L22.7627 10.1924H22.041L19.292 3.24316H19.2676V10.1924H18.5088V2.14062H19.6533L22.4141 9.19043Z" fill="white"/>
<path d="M38.9199 9.36621L43.5098 2.14062H44.4922V10.1924H43.7334V2.96777L39.1435 10.1924H38.1611V2.14062H38.9199V9.36621Z" fill="white"/>
<path d="M48.6963 5.63477H53.4482V2.14062H54.207V10.1924H53.4482V6.29785H48.6963V10.1924H47.9385V2.14062H48.6963V5.63477Z" fill="white"/>
<path d="M65.501 10.1924H64.7422V2.14062H65.501V10.1924Z" fill="white"/>
<path d="M69.6924 9.36621L74.2822 2.14062H75.2656V10.1924H74.5068V2.96777L69.917 10.1924H68.9346V2.14062H69.6924V9.36621Z" fill="white"/>
<path d="M15.6103 2.79199H10.8467V5.69727H15.2998V6.34863H10.8467V9.52832H15.6602V10.1797H10.0879V2.14062H15.6103V2.79199Z" fill="white"/>
<path d="M35.2256 2.79199H30.4619V5.69727H34.915V6.34863H30.4619V9.52832H35.2754V10.1797H29.7031V2.14062H35.2256V2.79199Z" fill="white"/>
<path d="M40.1269 0C40.1643 0.287766 40.2758 0.513054 40.4746 0.675781C40.6735 0.838483 40.9349 0.926677 41.2705 0.926758C41.6063 0.926758 41.8557 0.851254 42.0547 0.688477C42.2536 0.525778 42.3899 0.300456 42.4521 0.0126953H42.8877C42.8006 0.488338 42.6264 0.851196 42.3652 1.10156C42.0916 1.3519 41.7313 1.47749 41.2588 1.47754L41.2705 1.46484C40.7981 1.46476 40.4379 1.33921 40.1768 1.08887C39.9156 0.838465 39.7536 0.475744 39.6914 0H40.1269Z" fill="white"/>
<path d="M70.8994 0C70.9367 0.287929 71.049 0.513028 71.248 0.675781C71.447 0.838489 71.7082 0.926758 72.0439 0.926758C72.3796 0.926718 72.6282 0.851177 72.8271 0.688477C73.0261 0.525744 73.1634 0.300572 73.2256 0.0126953H73.6611C73.5741 0.488214 73.3997 0.851183 73.1387 1.10156C72.865 1.35199 72.5039 1.47754 72.0312 1.47754L72.0439 1.46484C71.5713 1.46484 71.2104 1.33929 70.9492 1.08887C70.6881 0.838463 70.526 0.475687 70.4639 0H70.8994Z" fill="white"/>
</svg>
